<svg xmlns="http://www.w3.org/2000/svg" xmlns:xlink="http://www.w3.org/1999/xlink" width="500" zoomAndPan="magnify" viewBox="0 0 375 374.999991" height="500" preserveAspectRatio="xMidYMid meet" version="1.0"><defs><clipPath id="5dbfa569f8"><path d="M 100.125 100.125 L 274.875 100.125 L 274.875 274.875 L 100.125 274.875 Z M 100.125 100.125 " clip-rule="nonzero"/></clipPath><clipPath id="d5186a8dab"><path d="M 187.5 100.125 C 139.246094 100.125 100.125 139.246094 100.125 187.5 C 100.125 235.753906 139.246094 274.875 187.5 274.875 C 235.753906 274.875 274.875 235.753906 274.875 187.5 C 274.875 139.246094 235.753906 100.125 187.5 100.125 Z M 187.5 100.125 " clip-rule="nonzero"/></clipPath><clipPath id="26ecff4bf7"><path d="M 113.296875 113.296875 L 261.796875 113.296875 L 261.796875 261.796875 L 113.296875 261.796875 Z M 113.296875 113.296875 " clip-rule="nonzero"/></clipPath><clipPath id="31cd367ea7"><path d="M 140.730469 144.242188 L 173.53125 144.242188 L 173.53125 177.042969 L 140.730469 177.042969 Z M 140.730469 144.242188 " clip-rule="nonzero"/></clipPath><clipPath id="777ab93a2e"><path d="M 157.128906 144.242188 C 148.074219 144.242188 140.730469 151.585938 140.730469 160.640625 C 140.730469 169.699219 148.074219 177.042969 157.128906 177.042969 C 166.1875 177.042969 173.53125 169.699219 173.53125 160.640625 C 173.53125 151.585938 166.1875 144.242188 157.128906 144.242188 Z M 157.128906 144.242188 " clip-rule="nonzero"/></clipPath><clipPath id="f988ecdd70"><path d="M 200.234375 144.242188 L 233.035156 144.242188 L 233.035156 177.042969 L 200.234375 177.042969 Z M 200.234375 144.242188 " clip-rule="nonzero"/></clipPath><clipPath id="9afa5a05f9"><path d="M 216.632812 144.242188 C 207.578125 144.242188 200.234375 151.585938 200.234375 160.640625 C 200.234375 169.699219 207.578125 177.042969 216.632812 177.042969 C 225.691406 177.042969 233.035156 169.699219 233.035156 160.640625 C 233.035156 151.585938 225.691406 144.242188 216.632812 144.242188 Z M 216.632812 144.242188 " clip-rule="nonzero"/></clipPath></defs><g clip-path="url(#5dbfa569f8)"><g clip-path="url(#d5186a8dab)"><path fill="#ffffff" d="M 100.125 100.125 L 274.875 100.125 L 274.875 274.875 L 100.125 274.875 Z M 100.125 100.125 " fill-opacity="1" fill-rule="nonzero"/></g></g><path fill="#e50914" d="M 260.921875 187.5 C 260.921875 188.699219 260.890625 189.902344 260.832031 191.101562 C 260.773438 192.300781 260.683594 193.5 260.566406 194.695312 C 260.449219 195.890625 260.304688 197.082031 260.125 198.273438 C 259.949219 199.460938 259.746094 200.644531 259.511719 201.824219 C 259.277344 203 259.011719 204.171875 258.722656 205.339844 C 258.429688 206.503906 258.109375 207.660156 257.757812 208.8125 C 257.410156 209.960938 257.035156 211.101562 256.628906 212.234375 C 256.222656 213.363281 255.792969 214.484375 255.332031 215.597656 C 254.871094 216.707031 254.386719 217.804688 253.871094 218.890625 C 253.359375 219.976562 252.816406 221.050781 252.25 222.109375 C 251.683594 223.167969 251.09375 224.214844 250.476562 225.246094 C 249.859375 226.277344 249.214844 227.289062 248.546875 228.289062 C 247.878906 229.289062 247.1875 230.269531 246.472656 231.234375 C 245.757812 232.203125 245.015625 233.148438 244.253906 234.078125 C 243.492188 235.007812 242.707031 235.914062 241.902344 236.804688 C 241.09375 237.695312 240.265625 238.566406 239.417969 239.417969 C 238.566406 240.265625 237.695312 241.09375 236.804688 241.902344 C 235.914062 242.707031 235.007812 243.492188 234.078125 244.253906 C 233.148438 245.015625 232.203125 245.757812 231.234375 246.472656 C 230.269531 247.1875 229.289062 247.878906 228.289062 248.546875 C 227.289062 249.214844 226.277344 249.859375 225.246094 250.476562 C 224.214844 251.09375 223.167969 251.683594 222.109375 252.25 C 221.050781 252.816406 219.976562 253.359375 218.890625 253.871094 C 217.804688 254.386719 216.707031 254.871094 215.597656 255.332031 C 214.484375 255.792969 213.363281 256.222656 212.234375 256.628906 C 211.101562 257.035156 209.960938 257.410156 208.8125 257.757812 C 207.660156 258.109375 206.503906 258.429688 205.339844 258.722656 C 204.171875 259.011719 203 259.277344 201.824219 259.511719 C 200.644531 259.746094 199.460938 259.949219 198.273438 260.125 C 197.082031 260.304688 195.890625 260.449219 194.695312 260.566406 C 193.5 260.683594 192.300781 260.773438 191.101562 260.832031 C 189.902344 260.890625 188.699219 260.921875 187.5 260.921875 C 186.296875 260.921875 185.097656 260.890625 183.894531 260.832031 C 182.695312 260.773438 181.496094 260.683594 180.300781 260.566406 C 179.105469 260.449219 177.914062 260.304688 176.726562 260.125 C 175.535156 259.949219 174.351562 259.746094 173.175781 259.511719 C 171.996094 259.277344 170.824219 259.011719 169.65625 258.722656 C 168.492188 258.429688 167.335938 258.109375 166.183594 257.757812 C 165.035156 257.410156 163.894531 257.035156 162.761719 256.628906 C 161.632812 256.222656 160.511719 255.792969 159.402344 255.332031 C 158.289062 254.871094 157.191406 254.386719 156.105469 253.871094 C 155.019531 253.359375 153.945312 252.816406 152.886719 252.25 C 151.828125 251.683594 150.78125 251.09375 149.75 250.476562 C 148.722656 249.859375 147.707031 249.214844 146.707031 248.546875 C 145.707031 247.878906 144.726562 247.1875 143.761719 246.472656 C 142.796875 245.757812 141.847656 245.015625 140.917969 244.253906 C 139.992188 243.492188 139.082031 242.707031 138.191406 241.902344 C 137.300781 241.09375 136.429688 240.265625 135.582031 239.417969 C 134.730469 238.566406 133.902344 237.695312 133.09375 236.804688 C 132.289062 235.914062 131.503906 235.007812 130.742188 234.078125 C 129.980469 233.148438 129.242188 232.203125 128.523438 231.234375 C 127.808594 230.269531 127.117188 229.289062 126.449219 228.289062 C 125.78125 227.289062 125.140625 226.277344 124.523438 225.246094 C 123.902344 224.214844 123.3125 223.167969 122.746094 222.109375 C 122.179688 221.050781 121.636719 219.976562 121.125 218.890625 C 120.609375 217.804688 120.125 216.707031 119.664062 215.597656 C 119.203125 214.484375 118.773438 213.363281 118.367188 212.234375 C 117.960938 211.101562 117.585938 209.960938 117.238281 208.8125 C 116.886719 207.660156 116.566406 206.503906 116.277344 205.339844 C 115.984375 204.171875 115.722656 203 115.484375 201.824219 C 115.25 200.644531 115.046875 199.460938 114.871094 198.273438 C 114.695312 197.082031 114.546875 195.890625 114.429688 194.695312 C 114.3125 193.5 114.222656 192.300781 114.164062 191.101562 C 114.105469 189.902344 114.074219 188.699219 114.074219 187.5 C 114.074219 186.296875 114.105469 185.097656 114.164062 183.894531 C 114.222656 182.695312 114.3125 181.496094 114.429688 180.300781 C 114.546875 179.105469 114.695312 177.914062 114.871094 176.726562 C 115.046875 175.535156 115.25 174.351562 115.484375 173.175781 C 115.722656 171.996094 115.984375 170.824219 116.277344 169.65625 C 116.566406 168.492188 116.886719 167.335938 117.238281 166.183594 C 117.585938 165.035156 117.960938 163.894531 118.367188 162.761719 C 118.773438 161.632812 119.203125 160.511719 119.664062 159.402344 C 120.125 158.289062 120.609375 157.191406 121.125 156.105469 C 121.636719 155.019531 122.179688 153.945312 122.746094 152.886719 C 123.3125 151.828125 123.902344 150.78125 124.523438 149.75 C 125.140625 148.722656 125.78125 147.707031 126.449219 146.707031 C 127.117188 145.707031 127.808594 144.726562 128.523438 143.761719 C 129.242188 142.796875 129.980469 141.847656 130.742188 140.917969 C 131.503906 139.992188 132.289062 139.082031 133.09375 138.191406 C 133.902344 137.300781 134.730469 136.429688 135.582031 135.582031 C 136.429688 134.730469 137.300781 133.902344 138.191406 133.09375 C 139.082031 132.289062 139.992188 131.503906 140.917969 130.742188 C 141.847656 129.980469 142.796875 129.242188 143.761719 128.523438 C 144.726562 127.808594 145.707031 127.117188 146.707031 126.449219 C 147.707031 125.78125 148.722656 125.140625 149.75 124.523438 C 150.78125 123.902344 151.828125 123.3125 152.886719 122.746094 C 153.945312 122.179688 155.019531 121.636719 156.105469 121.125 C 157.191406 120.609375 158.289062 120.125 159.402344 119.664062 C 160.511719 119.203125 161.632812 118.773438 162.761719 118.367188 C 163.894531 117.960938 165.035156 117.585938 166.183594 117.238281 C 167.335938 116.886719 168.492188 116.566406 169.65625 116.277344 C 170.824219 115.984375 171.996094 115.722656 173.175781 115.484375 C 174.351562 115.25 175.535156 115.046875 176.726562 114.871094 C 177.914062 114.695312 179.105469 114.546875 180.300781 114.429688 C 181.496094 114.3125 182.695312 114.222656 183.894531 114.164062 C 185.097656 114.105469 186.296875 114.074219 187.5 114.074219 C 188.699219 114.074219 189.902344 114.105469 191.101562 114.164062 C 192.300781 114.222656 193.5 114.3125 194.695312 114.429688 C 195.890625 114.546875 197.082031 114.695312 198.273438 114.871094 C 199.460938 115.046875 200.644531 115.25 201.824219 115.484375 C 203 115.722656 204.171875 115.984375 205.339844 116.277344 C 206.503906 116.566406 207.660156 116.886719 208.8125 117.238281 C 209.960938 117.585938 211.101562 117.960938 212.234375 118.367188 C 213.363281 118.773438 214.484375 119.203125 215.597656 119.664062 C 216.707031 120.125 217.804688 120.609375 218.890625 121.125 C 219.976562 121.636719 221.050781 122.179688 222.109375 122.746094 C 223.167969 123.3125 224.214844 123.902344 225.246094 124.523438 C 226.277344 125.140625 227.289062 125.78125 228.289062 126.449219 C 229.289062 127.117188 230.269531 127.808594 231.234375 128.523438 C 232.203125 129.242188 233.148438 129.980469 234.078125 130.742188 C 235.007812 131.503906 235.914062 132.289062 236.804688 133.09375 C 237.695312 133.902344 238.566406 134.730469 239.417969 135.582031 C 240.265625 136.429688 241.09375 137.300781 241.902344 138.191406 C 242.707031 139.082031 243.492188 139.992188 244.253906 140.917969 C 245.015625 141.847656 245.757812 142.796875 246.472656 143.761719 C 247.1875 144.726562 247.878906 145.707031 248.546875 146.707031 C 249.214844 147.707031 249.859375 148.722656 250.476562 149.75 C 251.09375 150.78125 251.683594 151.828125 252.25 152.886719 C 252.816406 153.945312 253.359375 155.019531 253.871094 156.105469 C 254.386719 157.191406 254.871094 158.289062 255.332031 159.402344 C 255.792969 160.511719 256.222656 161.632812 256.628906 162.761719 C 257.035156 163.894531 257.410156 165.035156 257.757812 166.183594 C 258.109375 167.335938 258.429688 168.492188 258.722656 169.65625 C 259.011719 170.824219 259.277344 171.996094 259.511719 173.175781 C 259.746094 174.351562 259.949219 175.535156 260.125 176.726562 C 260.304688 177.914062 260.449219 179.105469 260.566406 180.300781 C 260.683594 181.496094 260.773438 182.695312 260.832031 183.894531 C 260.890625 185.097656 260.921875 186.296875 260.921875 187.5 Z M 260.921875 187.5 " fill-opacity="1" fill-rule="nonzero"/><path fill="#ffffff" d="M 236.246094 197.378906 C 236.445312 197.351562 236.648438 197.34375 236.851562 197.363281 C 237.054688 197.378906 237.253906 197.417969 237.445312 197.480469 C 237.640625 197.539062 237.824219 197.625 238 197.726562 C 238.175781 197.832031 238.335938 197.953125 238.484375 198.09375 C 238.632812 198.234375 238.761719 198.386719 238.875 198.558594 C 238.988281 198.726562 239.078125 198.910156 239.148438 199.097656 C 239.222656 199.289062 239.269531 199.484375 239.296875 199.6875 C 239.324219 199.890625 239.328125 200.09375 239.308594 200.292969 C 237.378906 224.484375 214.929688 243.597656 187.515625 243.597656 C 160.097656 243.597656 137.648438 224.484375 135.714844 200.292969 C 135.699219 200.09375 135.703125 199.890625 135.730469 199.691406 C 135.761719 199.488281 135.8125 199.292969 135.882812 199.105469 C 135.957031 198.914062 136.046875 198.734375 136.160156 198.566406 C 136.273438 198.398438 136.402344 198.246094 136.550781 198.105469 C 136.699219 197.964844 136.859375 197.84375 137.035156 197.742188 C 137.210938 197.640625 137.394531 197.558594 137.589844 197.496094 C 137.78125 197.433594 137.980469 197.398438 138.183594 197.378906 C 138.382812 197.363281 138.585938 197.371094 138.785156 197.398438 C 139.699219 197.535156 140.613281 197.671875 141.515625 197.789062 C 156.230469 199.886719 171.019531 200.976562 185.882812 201.054688 C 186.964844 201.054688 188.046875 201.054688 189.128906 201.054688 C 203.992188 200.976562 218.78125 199.886719 233.496094 197.789062 C 234.414062 197.652344 235.328125 197.515625 236.246094 197.378906 Z M 236.246094 197.378906 " fill-opacity="1" fill-rule="nonzero"/><path fill="#ffffff" d="M 233.710938 197.75 C 225.042969 208.582031 207.496094 215.898438 187.515625 215.898438 C 167.53125 215.898438 150.019531 208.589844 141.355469 197.757812 C 156.144531 199.863281 171.105469 200.535156 185.890625 200.609375 C 186.972656 200.609375 188.054688 200.609375 189.136719 200.609375 C 203.921875 200.535156 218.917969 199.855469 233.710938 197.75 Z M 233.710938 197.75 " fill-opacity="1" fill-rule="nonzero"/><path fill="#ffffff" d="M 212.714844 153.738281 L 212.679688 153.761719 L 212.660156 153.761719 Z M 212.714844 153.738281 " fill-opacity="1" fill-rule="nonzero"/><path fill="#ffffff" d="M 205.367188 168.414062 C 205.714844 168.4375 206.042969 168.375 206.355469 168.222656 C 206.667969 168.070312 206.921875 167.847656 207.113281 167.558594 C 207.535156 166.90625 207.503906 166.074219 207.535156 165.296875 C 207.613281 162.242188 208.449219 159.414062 210.046875 156.8125 C 210.742188 155.65625 211.609375 154.648438 212.648438 153.785156 C 213.453125 153.132812 214.355469 152.671875 215.359375 152.40625 C 218.542969 151.589844 221.957031 153.4375 223.851562 156.125 C 225.742188 158.8125 226.386719 162.179688 226.695312 165.453125 C 226.78125 166.347656 226.886719 167.332031 227.542969 167.949219 C 227.703125 168.09375 227.886719 168.203125 228.085938 168.28125 C 228.285156 168.363281 228.496094 168.40625 228.710938 168.414062 C 228.925781 168.421875 229.136719 168.390625 229.34375 168.324219 C 229.550781 168.257812 229.738281 168.160156 229.910156 168.027344 C 230.804688 167.300781 230.796875 165.957031 230.667969 164.8125 C 230.320312 161.769531 229.613281 158.710938 228.238281 156 C 227.851562 155.230469 227.410156 154.496094 226.914062 153.792969 C 224.636719 150.601562 220.957031 148.234375 217.035156 148.269531 C 213.746094 148.300781 210.609375 150.015625 208.410156 152.460938 C 205.203125 156.035156 203.613281 161.132812 203.566406 165.878906 C 203.539062 166.359375 203.601562 166.828125 203.765625 167.285156 C 203.910156 167.605469 204.125 167.867188 204.410156 168.070312 C 204.699219 168.269531 205.015625 168.386719 205.367188 168.414062 Z M 210.828125 155.636719 L 210.777344 155.695312 C 210.792969 155.671875 210.808594 155.652344 210.828125 155.636719 Z M 210.828125 155.636719 " fill-opacity="1" fill-rule="nonzero"/><path fill="#ffffff" d="M 147.46875 167.941406 C 148.246094 167.210938 148.246094 165.992188 148.304688 164.910156 C 148.417969 162.300781 149.09375 159.847656 150.335938 157.550781 C 151.847656 154.753906 154.496094 152.25 157.679688 152.164062 C 158.605469 152.164062 159.5 152.328125 160.367188 152.65625 C 161.230469 152.984375 162.007812 153.457031 162.703125 154.070312 C 164.085938 155.316406 165.140625 156.796875 165.867188 158.511719 C 166.847656 160.699219 167.386719 162.988281 167.484375 165.386719 C 167.511719 166.140625 167.511719 166.945312 167.929688 167.578125 C 168.09375 167.800781 168.292969 167.980469 168.535156 168.117188 C 168.773438 168.253906 169.03125 168.339844 169.304688 168.367188 C 169.582031 168.394531 169.847656 168.363281 170.113281 168.277344 C 170.375 168.191406 170.609375 168.054688 170.8125 167.871094 C 171.59375 167.109375 171.542969 165.882812 171.421875 164.808594 C 170.972656 160.941406 169.957031 157.042969 167.71875 153.855469 C 166.425781 151.996094 164.773438 150.539062 162.765625 149.484375 C 161.261719 148.695312 159.664062 148.285156 157.964844 148.257812 C 154.816406 148.238281 151.773438 149.761719 149.570312 152.015625 C 146.097656 155.570312 144.496094 160.738281 144.316406 165.621094 C 144.234375 166.289062 144.34375 166.929688 144.640625 167.535156 C 144.792969 167.761719 144.984375 167.945312 145.214844 168.089844 C 145.445312 168.234375 145.695312 168.328125 145.964844 168.367188 C 146.234375 168.402344 146.5 168.386719 146.761719 168.3125 C 147.023438 168.238281 147.257812 168.113281 147.46875 167.941406 Z M 153.421875 153.761719 L 153.460938 153.738281 C 153.363281 153.808594 153.234375 153.894531 153.421875 153.761719 Z M 151.566406 155.636719 C 151.550781 155.65625 151.53125 155.675781 151.515625 155.695312 C 151.527344 155.664062 151.558594 155.636719 151.566406 155.636719 Z M 151.566406 155.636719 " fill-opacity="1" fill-rule="nonzero"/><g clip-path="url(#26ecff4bf7)"><path fill="#ffffff" d="M 187.5 113.296875 C 146.582031 113.296875 113.296875 146.582031 113.296875 187.5 C 113.296875 228.414062 146.582031 261.703125 187.5 261.703125 C 228.414062 261.703125 261.703125 228.410156 261.703125 187.5 C 261.703125 146.585938 228.410156 113.296875 187.5 113.296875 Z M 187.5 260.140625 C 147.445312 260.140625 114.855469 227.554688 114.855469 187.5 C 114.855469 147.445312 147.445312 114.855469 187.5 114.855469 C 227.554688 114.855469 260.140625 147.445312 260.140625 187.5 C 260.140625 227.554688 227.554688 260.140625 187.5 260.140625 Z M 187.5 260.140625 " fill-opacity="1" fill-rule="nonzero"/></g><path fill="#ffffff" d="M 238.976562 197.496094 C 238.589844 197.136719 238.148438 196.878906 237.644531 196.722656 C 237.140625 196.566406 236.628906 196.527344 236.109375 196.609375 L 233.488281 197 C 220.441406 198.847656 206.335938 199.75 189.113281 199.835938 C 188.035156 199.835938 186.957031 199.835938 185.878906 199.835938 C 168.648438 199.75 154.546875 198.847656 141.515625 197 L 138.882812 196.609375 C 138.363281 196.527344 137.851562 196.566406 137.351562 196.722656 C 136.847656 196.878906 136.40625 197.136719 136.019531 197.496094 C 135.628906 197.859375 135.335938 198.292969 135.144531 198.789062 C 134.949219 199.289062 134.875 199.804688 134.921875 200.335938 C 135.875 212.300781 141.773438 223.410156 151.527344 231.617188 C 161.28125 239.828125 174.101562 244.378906 187.5 244.378906 C 200.894531 244.378906 213.664062 239.847656 223.453125 231.613281 C 233.242188 223.382812 239.121094 212.296875 240.078125 200.332031 C 240.121094 199.800781 240.046875 199.285156 239.851562 198.789062 C 239.660156 198.292969 239.367188 197.859375 238.976562 197.496094 Z M 185.859375 201.828125 C 186.945312 201.828125 188.03125 201.828125 189.117188 201.828125 C 203.398438 201.75 217.613281 200.742188 231.761719 198.804688 C 222.609375 208.910156 205.890625 215.121094 187.5 215.121094 C 169.109375 215.121094 152.417969 208.917969 143.261719 198.816406 C 157.394531 200.742188 171.59375 201.746094 185.859375 201.828125 Z M 238.527344 200.210938 C 236.613281 224.09375 214.203125 242.820312 187.5 242.820312 C 160.792969 242.820312 138.382812 224.09375 136.476562 200.210938 C 136.429688 199.59375 136.632812 199.074219 137.085938 198.652344 C 137.445312 198.3125 137.875 198.144531 138.367188 198.144531 C 138.464844 198.144531 138.558594 198.152344 138.648438 198.167969 L 140.929688 198.5 C 150.085938 209.710938 167.886719 216.679688 187.5 216.679688 C 207.109375 216.679688 224.949219 209.710938 234.101562 198.484375 L 236.34375 198.15625 C 236.941406 198.066406 237.460938 198.226562 237.902344 198.640625 C 238.363281 199.066406 238.570312 199.589844 238.527344 200.210938 Z M 238.527344 200.210938 " fill-opacity="1" fill-rule="nonzero"/><g clip-path="url(#31cd367ea7)"><g clip-path="url(#777ab93a2e)"><path fill="#ffffff" d="M 140.730469 144.242188 L 173.53125 144.242188 L 173.53125 177.042969 L 140.730469 177.042969 Z M 140.730469 144.242188 " fill-opacity="1" fill-rule="nonzero"/></g></g><g clip-path="url(#f988ecdd70)"><g clip-path="url(#9afa5a05f9)"><path fill="#ffffff" d="M 200.234375 144.242188 L 233.035156 144.242188 L 233.035156 177.042969 L 200.234375 177.042969 Z M 200.234375 144.242188 " fill-opacity="1" fill-rule="nonzero"/></g></g></svg>